# xmcd
#
# Track frame offsets: 
#        150
#        25395
#        37890
#        54195
#        75165
#        94088
#        110160
#        122263
#        139748
#        156430
#        170638
#
# Disc length: 2582 seconds
#
# Revision: 0
# Processed by: cddbd v1.5.2PL0 Copyright (c) Steve Scherf et al.
# Submitted via: ExactAudioCopy v0.95b3
#
DISCID=820a140b
DTITLE=Дождевые псалмы - Поёт Олег Басилашвили
DYEAR=1997
DGENRE=Ballad
TTITLE0=Мир без слов
TTITLE1=Когда-то тогда...
TTITLE2=Небо как образа
TTITLE3=Пропавшая зима
TTITLE4=Прощальная улыбка
TTITLE5=Дождевой псалом
TTITLE6=Осень чувств
TTITLE7=Мазурка ля минор
TTITLE8=Осенний мордент
TTITLE9=Иоланта
TTITLE10=Спрятавшийся день
EXTD=
EXTT0=
EXTT1=
EXTT2=
EXTT3=
EXTT4=
EXTT5=
EXTT6=
EXTT7=
EXTT8=
EXTT9=
EXTT10=
PLAYORDER=
